<svg width="46" height="46" viewBox="0 0 46 46" fill="none" xmlns="http://www.w3.org/2000/svg">
<path d="M32.8427 10.8483C32.3978 10.8483 31.9629 10.9802 31.593 11.2274C31.223 11.4746 30.9347 11.8259 30.7645 12.2369C30.5942 12.648 30.5497 13.1003 30.6365 13.5366C30.7232 13.973 30.9375 14.3738 31.2521 14.6884C31.5667 15.003 31.9675 15.2172 32.4039 15.304C32.8402 15.3908 33.2925 15.3463 33.7035 15.176C34.1146 15.0058 34.4659 14.7174 34.7131 14.3475C34.9602 13.9776 35.0922 13.5427 35.0922 13.0978C35.0922 12.5012 34.8552 11.929 34.4333 11.5071C34.0115 11.0853 33.4393 10.8483 32.8427 10.8483ZM41.4657 15.3847C41.4292 13.8294 41.1379 12.2906 40.6034 10.8295C40.1268 9.57946 39.3849 8.4475 38.4289 7.51157C37.5007 6.55072 36.3661 5.81355 35.1109 5.35582C33.6537 4.805 32.1132 4.50704 30.5557 4.47478C28.5687 4.3623 27.9314 4.3623 22.8325 4.3623C17.7337 4.3623 17.0964 4.3623 15.1093 4.47478C13.5519 4.50704 12.0113 4.805 10.5542 5.35582C9.30134 5.81818 8.16771 6.55472 7.23618 7.51157C6.27533 8.43981 5.53816 9.57441 5.08043 10.8295C4.52961 12.2867 4.23165 13.8273 4.19939 15.3847C4.08691 17.3718 4.08691 18.0091 4.08691 23.1079C4.08691 28.2067 4.08691 28.8441 4.19939 30.8311C4.23165 32.3886 4.52961 33.9291 5.08043 35.3863C5.53816 36.6414 6.27533 37.7761 7.23618 38.7043C8.16771 39.6611 9.30134 40.3977 10.5542 40.86C12.0113 41.4109 13.5519 41.7088 15.1093 41.7411C17.0964 41.8536 17.7337 41.8536 22.8325 41.8536C27.9314 41.8536 28.5687 41.8536 30.5557 41.7411C32.1132 41.7088 33.6537 41.4109 35.1109 40.86C36.3661 40.4023 37.5007 39.6651 38.4289 38.7043C39.3891 37.7718 40.1316 36.6389 40.6034 35.3863C41.1379 33.9253 41.4292 32.3865 41.4657 30.8311C41.4657 28.8441 41.5782 28.2067 41.5782 23.1079C41.5782 18.0091 41.5782 17.3718 41.4657 15.3847ZM38.0915 30.6062C38.0778 31.7961 37.8623 32.9751 37.4541 34.0929C37.1548 34.9087 36.6741 35.6458 36.0482 36.2486C35.4402 36.8682 34.7046 37.3479 33.8925 37.6545C32.7747 38.0627 31.5957 38.2782 30.4058 38.2919C28.5312 38.3856 27.8376 38.4044 22.9075 38.4044C17.9774 38.4044 17.2838 38.4044 15.4093 38.2919C14.1737 38.315 12.9435 38.1248 11.7726 37.7295C10.9961 37.4072 10.2943 36.9287 9.7106 36.3236C9.08841 35.7214 8.61369 34.9836 8.32343 34.1679C7.86576 33.034 7.61192 31.8283 7.5736 30.6062C7.5736 28.7316 7.46113 28.038 7.46113 23.1079C7.46113 18.1778 7.46113 17.4842 7.5736 15.6097C7.582 14.3932 7.80408 13.1876 8.2297 12.048C8.55971 11.2568 9.06625 10.5515 9.7106 9.98599C10.2801 9.34146 10.984 8.82957 11.7726 8.48634C12.9153 8.07402 14.1196 7.85851 15.3343 7.84899C17.2089 7.84899 17.9024 7.73652 22.8325 7.73652C27.7626 7.73652 28.4562 7.73652 30.3308 7.84899C31.5207 7.86264 32.6997 8.07815 33.8175 8.48634C34.6693 8.80249 35.4339 9.31649 36.0482 9.98599C36.6625 10.5618 37.1425 11.2658 37.4541 12.048C37.8708 13.1895 38.0864 14.3946 38.0915 15.6097C38.1852 17.4842 38.204 18.1778 38.204 23.1079C38.204 28.038 38.1852 28.7316 38.0915 30.6062ZM22.8325 13.4914C20.9314 13.4951 19.074 14.0623 17.495 15.1212C15.9161 16.1801 14.6864 17.6833 13.9614 19.4408C13.2364 21.1983 13.0487 23.1313 13.4219 24.9955C13.795 26.8597 14.7124 28.5714 16.058 29.9144C17.4036 31.2574 19.1172 32.1715 20.9821 32.541C22.847 32.9105 24.7796 32.719 26.5357 31.9906C28.2918 31.2622 29.7926 30.0296 30.8484 28.4486C31.9043 26.8676 32.4678 25.0091 32.4678 23.1079C32.4703 21.8428 32.2226 20.5897 31.739 19.4206C31.2555 18.2515 30.5455 17.1896 29.6501 16.2959C28.7546 15.4022 27.6913 14.6943 26.5213 14.213C25.3513 13.7317 24.0977 13.4865 22.8325 13.4914ZM22.8325 29.3502C21.5979 29.3502 20.391 28.9841 19.3645 28.2982C18.338 27.6123 17.5379 26.6374 17.0654 25.4968C16.5929 24.3561 16.4693 23.101 16.7102 21.8901C16.9511 20.6792 17.5456 19.567 18.4186 18.694C19.2916 17.821 20.4038 17.2264 21.6147 16.9856C22.8256 16.7447 24.0807 16.8683 25.2214 17.3408C26.362 17.8133 27.3369 18.6134 28.0228 19.6399C28.7087 20.6664 29.0748 21.8733 29.0748 23.1079C29.0748 23.9277 28.9134 24.7394 28.5997 25.4968C28.286 26.2541 27.8262 26.9422 27.2465 27.5219C26.6669 28.1015 25.9787 28.5614 25.2214 28.8751C24.464 29.1888 23.6523 29.3502 22.8325 29.3502Z" fill="#FFA97A"/>
</svg>
