<svg width="46" height="46" viewBox="0 0 46 46" fill="none" xmlns="http://www.w3.org/2000/svg">
<path d="M40.0337 15.6106C39.5365 15.6106 39.0597 15.8081 38.7082 16.1596C38.3566 16.5112 38.1591 16.988 38.1591 17.4851V32.4816C38.1591 32.9788 37.9616 33.4556 37.6101 33.8071C37.2585 34.1587 36.7817 34.3562 36.2846 34.3562H10.0407C9.54352 34.3562 9.06671 34.1587 8.71516 33.8071C8.36362 33.4556 8.16612 32.9788 8.16612 32.4816V14.5046L19.1885 25.527C20.243 26.5801 21.6723 27.1717 23.1626 27.1717C24.6529 27.1717 26.0822 26.5801 27.1367 25.527L33.8664 18.8161C34.2194 18.4631 34.4177 17.9843 34.4177 17.4851C34.4177 16.9859 34.2194 16.5072 33.8664 16.1542C33.5134 15.8012 33.0346 15.6029 32.5354 15.6029C32.0362 15.6029 31.5575 15.8012 31.2045 16.1542L24.4936 22.8839C24.3193 23.0596 24.112 23.199 23.8835 23.2942C23.6551 23.3894 23.4101 23.4383 23.1626 23.4383C22.9152 23.4383 22.6701 23.3894 22.4417 23.2942C22.2133 23.199 22.0059 23.0596 21.8317 22.8839L10.8093 11.8614H25.0372C25.5343 11.8614 26.0111 11.6639 26.3627 11.3124C26.7142 10.9608 26.9117 10.484 26.9117 9.98687C26.9117 9.4897 26.7142 9.0129 26.3627 8.66135C26.0111 8.3098 25.5343 8.1123 25.0372 8.1123H10.0407C8.54919 8.1123 7.11878 8.7048 6.06413 9.75944C5.00949 10.8141 4.41699 12.2445 4.41699 13.736V32.4816C4.41699 33.9731 5.00949 35.4035 6.06413 36.4582C7.11878 37.5128 8.54919 38.1053 10.0407 38.1053H36.2846C37.7761 38.1053 39.2065 37.5128 40.2611 36.4582C41.3158 35.4035 41.9082 33.9731 41.9082 32.4816V17.4851C41.9082 16.988 41.7107 16.5112 41.3592 16.1596C41.0077 15.8081 40.5308 15.6106 40.0337 15.6106ZM32.5354 11.8614H40.0337C40.5308 11.8614 41.0077 11.6639 41.3592 11.3124C41.7107 10.9608 41.9082 10.484 41.9082 9.98687C41.9082 9.4897 41.7107 9.0129 41.3592 8.66135C41.0077 8.3098 40.5308 8.1123 40.0337 8.1123H32.5354C32.0383 8.1123 31.5615 8.3098 31.2099 8.66135C30.8584 9.0129 30.6609 9.4897 30.6609 9.98687C30.6609 10.484 30.8584 10.9608 31.2099 11.3124C31.5615 11.6639 32.0383 11.8614 32.5354 11.8614Z" fill="#FFA97A"/>
</svg>
