<svg width="28" height="28" viewBox="0 0 28 28" fill="none" xmlns="http://www.w3.org/2000/svg">
<path d="M22.0693 7.46672H18.6951V6.34199C18.6951 5.44709 18.3396 4.58885 17.7068 3.95606C17.074 3.32327 16.2157 2.96777 15.3208 2.96777H13.0714C12.1765 2.96777 11.3182 3.32327 10.6854 3.95606C10.0527 4.58885 9.69716 5.44709 9.69716 6.34199V7.46672H6.32294C5.42805 7.46672 4.5698 7.82222 3.93701 8.45501C3.30423 9.0878 2.94873 9.94604 2.94873 10.8409V20.9636C2.94873 21.8585 3.30423 22.7167 3.93701 23.3495C4.5698 23.9823 5.42805 24.3378 6.32294 24.3378H22.0693C22.9642 24.3378 23.8224 23.9823 24.4552 23.3495C25.088 22.7167 25.4435 21.8585 25.4435 20.9636V10.8409C25.4435 9.94604 25.088 9.0878 24.4552 8.45501C23.8224 7.82222 22.9642 7.46672 22.0693 7.46672ZM11.9466 6.34199C11.9466 6.04369 12.0651 5.75761 12.2761 5.54668C12.487 5.33575 12.7731 5.21725 13.0714 5.21725H15.3208C15.6191 5.21725 15.9052 5.33575 16.1162 5.54668C16.3271 5.75761 16.4456 6.04369 16.4456 6.34199V7.46672H11.9466V6.34199ZM23.194 20.9636C23.194 21.2619 23.0755 21.548 22.8646 21.7589C22.6536 21.9698 22.3676 22.0883 22.0693 22.0883H6.32294C6.02464 22.0883 5.73856 21.9698 5.52763 21.7589C5.3167 21.548 5.19821 21.2619 5.19821 20.9636V14.7775C6.29532 15.2127 7.42314 15.5661 8.57242 15.8348V16.4984C8.57242 16.7967 8.69092 17.0827 8.90185 17.2937C9.11278 17.5046 9.39886 17.6231 9.69716 17.6231C9.99545 17.6231 10.2815 17.5046 10.4925 17.2937C10.7034 17.0827 10.8219 16.7967 10.8219 16.4984V16.2622C11.9403 16.4144 13.0674 16.4933 14.1961 16.4984C15.3248 16.4933 16.4519 16.4144 17.5703 16.2622V16.4984C17.5703 16.7967 17.6888 17.0827 17.8997 17.2937C18.1107 17.5046 18.3968 17.6231 18.6951 17.6231C18.9934 17.6231 19.2794 17.5046 19.4904 17.2937C19.7013 17.0827 19.8198 16.7967 19.8198 16.4984V15.8348C20.9691 15.5661 22.0969 15.2127 23.194 14.7775V20.9636ZM23.194 12.3143C22.1001 12.776 20.972 13.1521 19.8198 13.4391V13.0904C19.8198 12.7921 19.7013 12.506 19.4904 12.2951C19.2794 12.0842 18.9934 11.9657 18.6951 11.9657C18.3968 11.9657 18.1107 12.0842 17.8997 12.2951C17.6888 12.506 17.5703 12.7921 17.5703 13.0904V13.9227C15.3335 14.2602 13.0587 14.2602 10.8219 13.9227V13.0904C10.8219 12.7921 10.7034 12.506 10.4925 12.2951C10.2815 12.0842 9.99545 11.9657 9.69716 11.9657C9.39886 11.9657 9.11278 12.0842 8.90185 12.2951C8.69092 12.506 8.57242 12.7921 8.57242 13.0904V13.4616C7.42026 13.1746 6.29213 12.7985 5.19821 12.3368V10.8409C5.19821 10.5426 5.3167 10.2566 5.52763 10.0456C5.73856 9.8347 6.02464 9.7162 6.32294 9.7162H22.0693C22.3676 9.7162 22.6536 9.8347 22.8646 10.0456C23.0755 10.2566 23.194 10.5426 23.194 10.8409V12.3143Z" fill="#FFA97A"/>
</svg>
