<svg width="45" height="46" viewBox="0 0 45 46" fill="none" xmlns="http://www.w3.org/2000/svg">
<path d="M43.105 8.01751C43.1052 7.68641 43.0177 7.36115 42.8513 7.07488C42.6849 6.78861 42.4457 6.55154 42.1579 6.38783C41.8701 6.22411 41.544 6.1396 41.2129 6.14288C40.8818 6.14617 40.5575 6.23715 40.273 6.40655C39.1758 7.05962 37.9946 7.55975 36.762 7.89308C35.0017 6.38262 32.7567 5.55607 30.4372 5.56452C27.8926 5.56745 25.4488 6.55915 23.6217 8.33021C21.7946 10.1013 20.7273 12.5131 20.6452 15.0563C15.6288 14.2564 11.0824 11.6381 7.87276 7.70081C7.67937 7.46618 7.4324 7.28149 7.15267 7.16233C6.87293 7.04317 6.56865 6.99302 6.26547 7.01612C5.96247 7.04107 5.6701 7.13945 5.41366 7.30276C5.15721 7.46607 4.9444 7.68939 4.79364 7.9534C4.02043 9.30274 3.57636 10.8154 3.49747 12.3686C3.41859 13.9217 3.70712 15.4716 4.33964 16.8923L4.33598 16.896C4.0517 17.0711 3.81709 17.3162 3.65459 17.6079C3.49209 17.8995 3.40714 18.228 3.40785 18.5619C3.40441 18.8373 3.42093 19.1126 3.45728 19.3857C3.64875 21.7444 4.69409 23.9522 6.39727 25.5952C6.28173 25.8153 6.21121 26.0562 6.18984 26.3039C6.16846 26.5516 6.19666 26.801 6.27278 27.0377C7.01532 29.3512 8.59443 31.3043 10.7011 32.5149C8.56078 33.3426 6.24978 33.6311 3.97168 33.3552C3.55004 33.3023 3.12294 33.3942 2.76043 33.616C2.39792 33.8377 2.12154 34.1761 1.97661 34.5756C1.83169 34.975 1.82683 35.4119 1.96283 35.8145C2.09883 36.2171 2.36762 36.5615 2.7251 36.7913C6.64311 39.3147 11.205 40.6564 15.8654 40.6558C21.1502 40.7152 26.3066 39.0264 30.5324 35.8521C34.7581 32.6778 37.8164 28.1959 39.2314 23.1036C39.8933 20.8853 40.2312 18.5831 40.2347 16.2681C40.2347 16.1455 40.2347 16.0192 40.2328 15.8929C41.2115 14.8374 41.9697 13.5971 42.4629 12.2448C42.9561 10.8925 43.1744 9.45529 43.105 8.01751ZM36.9065 14.0384C36.5969 14.4046 36.4402 14.876 36.469 15.3547C36.4873 15.664 36.4855 15.9751 36.4855 16.2681C36.4816 18.2243 36.1949 20.1697 35.6342 22.0438C34.4786 26.3766 31.9023 30.1963 28.318 32.8911C24.7337 35.5859 20.3487 36.9999 15.8654 36.9066C14.2549 36.9071 12.6499 36.7179 11.0838 36.3428C13.0809 35.6992 14.9483 34.7069 16.5994 33.412C16.9035 33.1725 17.1261 32.8449 17.2366 32.4739C17.347 32.103 17.34 31.7069 17.2165 31.3401C17.0929 30.9733 16.8589 30.6537 16.5465 30.4252C16.2341 30.1967 15.8587 30.0704 15.4717 30.0638C13.9136 30.0395 12.4258 29.4114 11.3217 28.3118C11.6018 28.2588 11.88 28.1929 12.1564 28.1141C12.5614 27.9989 12.9157 27.7507 13.1624 27.4096C13.4092 27.0684 13.5339 26.6542 13.5166 26.2335C13.4992 25.8129 13.3408 25.4103 13.0669 25.0906C12.7929 24.7709 12.4194 24.5527 12.0063 24.4712C11.1019 24.2926 10.2509 23.9078 9.51937 23.3468C8.78785 22.7858 8.19557 22.0636 7.78855 21.2365C8.12734 21.2827 8.46829 21.3114 8.81004 21.3225C9.21604 21.3286 9.61347 21.2055 9.94486 20.9708C10.2762 20.7362 10.5244 20.4022 10.6535 20.0173C10.7772 19.6288 10.7708 19.2106 10.6354 18.826C10.4999 18.4415 10.2428 18.1116 9.90293 17.8864C9.0784 17.3371 8.40299 16.5919 7.93718 15.7175C7.47138 14.843 7.22972 13.8667 7.23387 12.876C7.23387 12.7515 7.23753 12.627 7.24486 12.5044C11.4462 16.4227 16.8957 18.7325 22.6331 19.0269C22.9228 19.0383 23.2112 18.9838 23.4766 18.8674C23.7421 18.751 23.9776 18.5758 24.1654 18.3551C24.3513 18.1322 24.483 17.8692 24.55 17.5868C24.617 17.3044 24.6175 17.0103 24.5515 16.7276C24.4443 16.2803 24.3897 15.822 24.3886 15.362C24.3903 13.7584 25.0281 12.2209 26.1621 11.087C27.296 9.95306 28.8335 9.31528 30.4371 9.31359C31.2621 9.31138 32.0787 9.48023 32.8352 9.80949C33.5917 10.1388 34.2718 10.6213 34.8324 11.2266C35.0486 11.4592 35.3207 11.6326 35.6229 11.7304C35.925 11.8281 36.2472 11.8469 36.5586 11.785C37.3287 11.6352 38.0877 11.4333 38.8305 11.1809C38.3238 12.2175 37.6764 13.1791 36.9065 14.0384Z" fill="#FFA97A"/>
</svg>
