<svg width="31" height="28" viewBox="0 0 31 28" fill="none" xmlns="http://www.w3.org/2000/svg">
<path d="M24.3273 8.75032C24.7207 8.74866 25.0977 8.59247 25.3771 8.31542L26.4418 7.25067C26.5988 7.11623 26.7263 6.95079 26.8163 6.76474C26.9063 6.57868 26.9569 6.37603 26.9649 6.1695C26.9729 5.96297 26.9381 5.75702 26.8627 5.56458C26.7873 5.37214 26.6729 5.19735 26.5268 5.05121C26.3806 4.90506 26.2058 4.7907 26.0134 4.7153C25.8209 4.63991 25.615 4.60511 25.4085 4.61309C25.2019 4.62106 24.9993 4.67165 24.8132 4.76166C24.6272 4.85168 24.4617 4.97918 24.3273 5.13616L23.3375 6.20091C23.0582 6.48189 22.9014 6.86198 22.9014 7.25817C22.9014 7.65435 23.0582 8.03444 23.3375 8.31542C23.6019 8.5784 23.9548 8.73345 24.3273 8.75032V8.75032ZM15.8393 5.24114C16.237 5.24114 16.6184 5.08314 16.8997 4.8019C17.1809 4.52066 17.3389 4.13922 17.3389 3.74149V2.24184C17.3389 1.84411 17.1809 1.46266 16.8997 1.18142C16.6184 0.900186 16.237 0.742188 15.8393 0.742188C15.4415 0.742188 15.0601 0.900186 14.7789 1.18142C14.4976 1.46266 14.3396 1.84411 14.3396 2.24184V3.74149C14.3396 4.13922 14.4976 4.52066 14.7789 4.8019C15.0601 5.08314 15.4415 5.24114 15.8393 5.24114ZM3.84207 14.239H2.34242C1.94469 14.239 1.56325 14.397 1.28201 14.6783C1.00077 14.9595 0.842773 15.341 0.842773 15.7387C0.842773 16.1364 1.00077 16.5179 1.28201 16.7991C1.56325 17.0803 1.94469 17.2383 2.34242 17.2383H3.84207C4.23981 17.2383 4.62125 17.0803 4.90249 16.7991C5.18373 16.5179 5.34172 16.1364 5.34172 15.7387C5.34172 15.341 5.18373 14.9595 4.90249 14.6783C4.62125 14.397 4.23981 14.239 3.84207 14.239ZM6.3015 8.31542C6.58083 8.59247 6.95784 8.74866 7.35126 8.75032C7.54862 8.75146 7.74427 8.71363 7.92698 8.639C8.10969 8.56437 8.27588 8.45441 8.41601 8.31542C8.69532 8.03444 8.85209 7.65435 8.85209 7.25817C8.85209 6.86198 8.69532 6.48189 8.41601 6.20091L7.35126 5.13616C7.06437 4.89048 6.69534 4.7621 6.31792 4.77668C5.94049 4.79126 5.58246 4.94772 5.31538 5.2148C5.04831 5.48188 4.89184 5.8399 4.87726 6.21733C4.86269 6.59476 4.99107 6.96378 5.23675 7.25067L6.3015 8.31542ZM29.3361 14.239H27.8365C27.4387 14.239 27.0573 14.397 26.7761 14.6783C26.4948 14.9595 26.3368 15.341 26.3368 15.7387C26.3368 16.1364 26.4948 16.5179 26.7761 16.7991C27.0573 17.0803 27.4387 17.2383 27.8365 17.2383H29.3361C29.7339 17.2383 30.1153 17.0803 30.3965 16.7991C30.6778 16.5179 30.8358 16.1364 30.8358 15.7387C30.8358 15.341 30.6778 14.9595 30.3965 14.6783C30.1153 14.397 29.7339 14.239 29.3361 14.239ZM14.3396 24.7366H9.84067C9.44294 24.7366 9.0615 24.8946 8.78026 25.1758C8.49902 25.4571 8.34102 25.8385 8.34102 26.2362C8.34102 26.634 8.49902 27.0154 8.78026 27.2967C9.0615 27.5779 9.44294 27.7359 9.84067 27.7359H14.3396C14.7374 27.7359 15.1188 27.5779 15.4 27.2967C15.6813 27.0154 15.8393 26.634 15.8393 26.2362C15.8393 25.8385 15.6813 25.4571 15.4 25.1758C15.1188 24.8946 14.7374 24.7366 14.3396 24.7366ZM24.8372 18.738H23.5175C23.8962 17.7835 24.0896 16.7656 24.0874 15.7387C24.0874 13.5512 23.2184 11.4532 21.6715 9.90642C20.1247 8.3596 18.0268 7.49061 15.8393 7.49061C13.6517 7.49061 11.5538 8.3596 10.007 9.90642C8.46019 11.4532 7.5912 13.5512 7.5912 15.7387C7.58891 16.7656 7.78232 17.7835 8.16107 18.738H6.84137C6.44364 18.738 6.0622 18.896 5.78096 19.1772C5.49972 19.4585 5.34172 19.8399 5.34172 20.2376C5.34172 20.6354 5.49972 21.0168 5.78096 21.2981C6.0622 21.5793 6.44364 21.7373 6.84137 21.7373H24.8372C25.2349 21.7373 25.6164 21.5793 25.8976 21.2981C26.1788 21.0168 26.3368 20.6354 26.3368 20.2376C26.3368 19.8399 26.1788 19.4585 25.8976 19.1772C25.6164 18.896 25.2349 18.738 24.8372 18.738ZM20.1133 18.738H11.5653C10.9352 17.8645 10.5944 16.8157 10.5905 15.7387C10.5905 14.3466 11.1435 13.0116 12.1278 12.0272C13.1122 11.0429 14.4472 10.4899 15.8393 10.4899C17.2313 10.4899 18.5664 11.0429 19.5507 12.0272C20.5351 13.0116 21.0881 14.3466 21.0881 15.7387C21.0842 16.8157 20.7433 17.8645 20.1133 18.738ZM21.8379 24.7366H20.3382C19.9405 24.7366 19.5591 24.8946 19.2778 25.1758C18.9966 25.4571 18.8386 25.8385 18.8386 26.2362C18.8386 26.634 18.9966 27.0154 19.2778 27.2967C19.5591 27.5779 19.9405 27.7359 20.3382 27.7359H21.8379C22.2356 27.7359 22.6171 27.5779 22.8983 27.2967C23.1795 27.0154 23.3375 26.634 23.3375 26.2362C23.3375 25.8385 23.1795 25.4571 22.8983 25.1758C22.6171 24.8946 22.2356 24.7366 21.8379 24.7366Z" fill="white"/>
</svg>
